<mxfile host="app.diagrams.net" modified="2021-07-17T17:31:48.770Z" agent="5.0 (Windows NT 10.0; Win64; x64) AppleWebKit/537.36 (KHTML, like Gecko) Chrome/91.0.4472.124 Safari/537.36" etag="nx3ZP04Fxyy1fywjQocT" version="14.8.5" type="github">
  <diagram id="NE3cPtPdlu0bRfjmHuXq" name="Page-1">
    <mxGraphModel dx="3827" dy="804" grid="1" gridSize="10" guides="1" tooltips="1" connect="1" arrows="1" fold="1" page="1" pageScale="1" pageWidth="2339" pageHeight="3300" background="#283618" math="0" shadow="1">
      <root>
        <mxCell id="0" />
        <mxCell id="1" parent="0" />
        <mxCell id="rPY3LmB4Ow1-nCbWdkCg-19" style="edgeStyle=none;shape=flexArrow;rounded=0;orthogonalLoop=1;jettySize=auto;html=1;exitX=0.5;exitY=1;exitDx=0;exitDy=0;entryX=0.5;entryY=0;entryDx=0;entryDy=0;strokeColor=#FF8000;" parent="1" source="vk21m-djXGiHdSAmLA7r-1" target="NcmY5wRb6qmJwFxtnWwE-3" edge="1">
          <mxGeometry relative="1" as="geometry" />
        </mxCell>
        <mxCell id="vk21m-djXGiHdSAmLA7r-1" value="&lt;font style=&quot;font-size: 14px&quot;&gt;&lt;b&gt;App.js&lt;/b&gt;&lt;/font&gt;" style="rounded=0;whiteSpace=wrap;html=1;sketch=0;fillColor=#f8cecc;strokeWidth=5;strokeColor=#b85450;" parent="1" vertex="1">
          <mxGeometry x="350" y="40" width="120" height="50" as="geometry" />
        </mxCell>
        <mxCell id="NcmY5wRb6qmJwFxtnWwE-2" value="&lt;font style=&quot;font-size: 14px&quot; color=&quot;#ff3333&quot;&gt;&lt;b&gt;Index.js&lt;/b&gt;&lt;/font&gt;" style="rounded=0;whiteSpace=wrap;html=1;strokeWidth=5;strokeColor=#b85450;fillColor=#f8cecc;" parent="1" vertex="1">
          <mxGeometry x="10" y="35" width="120" height="60" as="geometry" />
        </mxCell>
        <mxCell id="glclH0pW0prBYwFQhmI4-6" style="edgeStyle=orthogonalEdgeStyle;rounded=0;orthogonalLoop=1;jettySize=auto;html=1;exitX=0;exitY=0.5;exitDx=0;exitDy=0;entryX=1;entryY=0.5;entryDx=0;entryDy=0;gradientColor=#97d077;fillColor=#d5e8d4;strokeColor=#FF0000;" edge="1" parent="1" source="NcmY5wRb6qmJwFxtnWwE-3" target="glclH0pW0prBYwFQhmI4-5">
          <mxGeometry relative="1" as="geometry" />
        </mxCell>
        <mxCell id="glclH0pW0prBYwFQhmI4-36" style="edgeStyle=none;rounded=0;orthogonalLoop=1;jettySize=auto;html=1;exitX=0.75;exitY=1;exitDx=0;exitDy=0;fontColor=#000000;gradientColor=#97d077;fillColor=#d5e8d4;strokeColor=#FF0000;entryX=0.5;entryY=0;entryDx=0;entryDy=0;" edge="1" parent="1" source="NcmY5wRb6qmJwFxtnWwE-3" target="glclH0pW0prBYwFQhmI4-35">
          <mxGeometry relative="1" as="geometry">
            <mxPoint x="450" y="280" as="targetPoint" />
          </mxGeometry>
        </mxCell>
        <mxCell id="glclH0pW0prBYwFQhmI4-39" style="edgeStyle=none;rounded=0;orthogonalLoop=1;jettySize=auto;html=1;exitX=0.25;exitY=1;exitDx=0;exitDy=0;entryX=1;entryY=0;entryDx=0;entryDy=0;fontColor=#000000;strokeColor=#FF0000;" edge="1" parent="1" source="NcmY5wRb6qmJwFxtnWwE-3" target="glclH0pW0prBYwFQhmI4-18">
          <mxGeometry relative="1" as="geometry" />
        </mxCell>
        <mxCell id="glclH0pW0prBYwFQhmI4-46" style="edgeStyle=none;rounded=0;orthogonalLoop=1;jettySize=auto;html=1;exitX=1;exitY=0;exitDx=0;exitDy=0;entryX=0;entryY=0.5;entryDx=0;entryDy=0;fontColor=#000000;strokeColor=#FF0000;" edge="1" parent="1" source="NcmY5wRb6qmJwFxtnWwE-3" target="glclH0pW0prBYwFQhmI4-42">
          <mxGeometry relative="1" as="geometry" />
        </mxCell>
        <mxCell id="glclH0pW0prBYwFQhmI4-47" style="edgeStyle=none;rounded=0;orthogonalLoop=1;jettySize=auto;html=1;exitX=1;exitY=0.25;exitDx=0;exitDy=0;entryX=0;entryY=0.5;entryDx=0;entryDy=0;fontColor=#000000;strokeColor=#FF0000;" edge="1" parent="1" source="NcmY5wRb6qmJwFxtnWwE-3" target="glclH0pW0prBYwFQhmI4-44">
          <mxGeometry relative="1" as="geometry" />
        </mxCell>
        <mxCell id="glclH0pW0prBYwFQhmI4-53" style="edgeStyle=none;rounded=0;orthogonalLoop=1;jettySize=auto;html=1;exitX=1;exitY=0.75;exitDx=0;exitDy=0;entryX=0;entryY=0.5;entryDx=0;entryDy=0;fontColor=#000000;strokeColor=#FF0000;" edge="1" parent="1" source="NcmY5wRb6qmJwFxtnWwE-3" target="glclH0pW0prBYwFQhmI4-49">
          <mxGeometry relative="1" as="geometry" />
        </mxCell>
        <mxCell id="NcmY5wRb6qmJwFxtnWwE-3" value="&amp;lt;&lt;font style=&quot;font-size: 14px&quot;&gt;&lt;b&gt;BrowserRouter&lt;/b&gt;&lt;/font&gt;&amp;gt;" style="rounded=0;whiteSpace=wrap;html=1;strokeColor=#6c8ebf;strokeWidth=5;fillColor=#dae8fc;" parent="1" vertex="1">
          <mxGeometry x="320" y="142.5" width="120" height="60" as="geometry" />
        </mxCell>
        <mxCell id="NcmY5wRb6qmJwFxtnWwE-22" style="edgeStyle=none;rounded=0;orthogonalLoop=1;jettySize=auto;html=1;exitX=0.25;exitY=1;exitDx=0;exitDy=0;entryX=0.5;entryY=0;entryDx=0;entryDy=0;strokeColor=#00FFFF;" parent="1" source="NcmY5wRb6qmJwFxtnWwE-9" target="NcmY5wRb6qmJwFxtnWwE-24" edge="1">
          <mxGeometry relative="1" as="geometry">
            <mxPoint x="360" y="310" as="targetPoint" />
          </mxGeometry>
        </mxCell>
        <mxCell id="NcmY5wRb6qmJwFxtnWwE-26" style="edgeStyle=none;rounded=0;orthogonalLoop=1;jettySize=auto;html=1;exitX=0.5;exitY=1;exitDx=0;exitDy=0;entryX=0.5;entryY=0;entryDx=0;entryDy=0;strokeColor=#00FFFF;" parent="1" source="NcmY5wRb6qmJwFxtnWwE-9" target="NcmY5wRb6qmJwFxtnWwE-25" edge="1">
          <mxGeometry relative="1" as="geometry" />
        </mxCell>
        <mxCell id="glclH0pW0prBYwFQhmI4-23" style="edgeStyle=none;rounded=0;orthogonalLoop=1;jettySize=auto;html=1;exitX=1;exitY=1;exitDx=0;exitDy=0;fontColor=#000000;fillColor=#dae8fc;strokeColor=#00FFFF;" edge="1" parent="1" source="NcmY5wRb6qmJwFxtnWwE-9" target="rPY3LmB4Ow1-nCbWdkCg-1">
          <mxGeometry relative="1" as="geometry" />
        </mxCell>
        <mxCell id="NcmY5wRb6qmJwFxtnWwE-9" value="Dialogs" style="rounded=0;whiteSpace=wrap;html=1;strokeWidth=5;strokeColor=#6c8ebf;gradientColor=#7ea6e0;fillColor=#dae8fc;" parent="1" vertex="1">
          <mxGeometry x="35" y="330" width="110" height="30" as="geometry" />
        </mxCell>
        <mxCell id="glclH0pW0prBYwFQhmI4-16" style="edgeStyle=none;rounded=0;orthogonalLoop=1;jettySize=auto;html=1;exitX=0;exitY=0.5;exitDx=0;exitDy=0;entryX=1;entryY=0.5;entryDx=0;entryDy=0;strokeColor=#FF0000;" edge="1" parent="1" source="NcmY5wRb6qmJwFxtnWwE-14" target="NcmY5wRb6qmJwFxtnWwE-16">
          <mxGeometry relative="1" as="geometry" />
        </mxCell>
        <mxCell id="NcmY5wRb6qmJwFxtnWwE-14" value="PostsProfile" style="rounded=0;whiteSpace=wrap;html=1;strokeWidth=5;fillColor=#d5e8d4;strokeColor=#82b366;gradientColor=#97d077;" parent="1" vertex="1">
          <mxGeometry x="-262.25" y="348.75" width="90" height="35" as="geometry" />
        </mxCell>
        <mxCell id="NcmY5wRb6qmJwFxtnWwE-16" value="PostsProfile_unit" style="rounded=0;whiteSpace=wrap;html=1;strokeColor=#82b366;strokeWidth=5;gradientColor=#97d077;fillColor=#d5e8d4;" parent="1" vertex="1">
          <mxGeometry x="-460" y="348.75" width="100" height="30" as="geometry" />
        </mxCell>
        <mxCell id="glclH0pW0prBYwFQhmI4-12" style="edgeStyle=none;rounded=0;orthogonalLoop=1;jettySize=auto;html=1;exitX=0;exitY=0.25;exitDx=0;exitDy=0;entryX=1;entryY=0.5;entryDx=0;entryDy=0;strokeColor=#FF0000;" edge="1" parent="1" source="NcmY5wRb6qmJwFxtnWwE-17" target="5CcLNLqV0mcSgWafiJZU-1">
          <mxGeometry relative="1" as="geometry" />
        </mxCell>
        <mxCell id="glclH0pW0prBYwFQhmI4-14" style="edgeStyle=none;rounded=0;orthogonalLoop=1;jettySize=auto;html=1;exitX=0;exitY=0.75;exitDx=0;exitDy=0;entryX=1;entryY=0.5;entryDx=0;entryDy=0;strokeColor=#FF0000;" edge="1" parent="1" source="NcmY5wRb6qmJwFxtnWwE-17" target="glclH0pW0prBYwFQhmI4-13">
          <mxGeometry relative="1" as="geometry" />
        </mxCell>
        <mxCell id="NcmY5wRb6qmJwFxtnWwE-17" value="infoLoggedUser" style="rounded=0;whiteSpace=wrap;html=1;strokeColor=#82b366;strokeWidth=5;gradientColor=#97d077;fillColor=#d5e8d4;" parent="1" vertex="1">
          <mxGeometry x="-269.75" y="215" width="105" height="30" as="geometry" />
        </mxCell>
        <mxCell id="NcmY5wRb6qmJwFxtnWwE-19" value="ProfileHeader" style="rounded=0;whiteSpace=wrap;html=1;strokeColor=#82b366;strokeWidth=5;gradientColor=#97d077;fillColor=#d5e8d4;" parent="1" vertex="1">
          <mxGeometry x="-262.25" y="150" width="90" height="30" as="geometry" />
        </mxCell>
        <mxCell id="NcmY5wRb6qmJwFxtnWwE-31" style="edgeStyle=none;rounded=0;orthogonalLoop=1;jettySize=auto;html=1;exitX=0.5;exitY=1;exitDx=0;exitDy=0;entryX=0.5;entryY=0;entryDx=0;entryDy=0;strokeColor=#00FFFF;" parent="1" source="NcmY5wRb6qmJwFxtnWwE-24" target="NcmY5wRb6qmJwFxtnWwE-28" edge="1">
          <mxGeometry relative="1" as="geometry" />
        </mxCell>
        <mxCell id="NcmY5wRb6qmJwFxtnWwE-24" value="UserContacts" style="rounded=0;whiteSpace=wrap;html=1;strokeWidth=5;fillColor=#dae8fc;gradientColor=#7ea6e0;strokeColor=#6c8ebf;" parent="1" vertex="1">
          <mxGeometry x="-106" y="420" width="106" height="30" as="geometry" />
        </mxCell>
        <mxCell id="NcmY5wRb6qmJwFxtnWwE-30" style="edgeStyle=none;rounded=0;orthogonalLoop=1;jettySize=auto;html=1;exitX=0.5;exitY=1;exitDx=0;exitDy=0;entryX=0.5;entryY=0;entryDx=0;entryDy=0;strokeColor=#00FFFF;" parent="1" source="NcmY5wRb6qmJwFxtnWwE-25" target="NcmY5wRb6qmJwFxtnWwE-29" edge="1">
          <mxGeometry relative="1" as="geometry" />
        </mxCell>
        <mxCell id="NcmY5wRb6qmJwFxtnWwE-25" value="UserMessages" style="rounded=0;whiteSpace=wrap;html=1;strokeWidth=5;fillColor=#dae8fc;gradientColor=#7ea6e0;strokeColor=#6c8ebf;" parent="1" vertex="1">
          <mxGeometry x="35" y="420" width="110" height="30" as="geometry" />
        </mxCell>
        <mxCell id="NcmY5wRb6qmJwFxtnWwE-28" value="UserContacts_unit" style="rounded=0;whiteSpace=wrap;html=1;strokeWidth=5;fillColor=#dae8fc;gradientColor=#7ea6e0;strokeColor=#6c8ebf;" parent="1" vertex="1">
          <mxGeometry x="-110" y="520" width="110" height="30" as="geometry" />
        </mxCell>
        <mxCell id="NcmY5wRb6qmJwFxtnWwE-29" value="UserMessages_unit" style="rounded=0;whiteSpace=wrap;html=1;strokeWidth=5;fillColor=#dae8fc;gradientColor=#7ea6e0;strokeColor=#6c8ebf;" parent="1" vertex="1">
          <mxGeometry x="35" y="520" width="110" height="30" as="geometry" />
        </mxCell>
        <mxCell id="5CcLNLqV0mcSgWafiJZU-1" value="InfoUser_unit" style="rounded=0;whiteSpace=wrap;html=1;strokeWidth=5;fillColor=#d5e8d4;strokeColor=#82b366;gradientColor=#97d077;" parent="1" vertex="1">
          <mxGeometry x="-490.5" y="150" width="130.5" height="35" as="geometry" />
        </mxCell>
        <mxCell id="tiZ0bim6uAu565jhyz3W-2" style="edgeStyle=orthogonalEdgeStyle;rounded=0;orthogonalLoop=1;jettySize=auto;html=1;exitX=0.5;exitY=1;exitDx=0;exitDy=0;entryX=0.5;entryY=0;entryDx=0;entryDy=0;strokeColor=#00FFFF;" parent="1" source="rPY3LmB4Ow1-nCbWdkCg-1" target="tiZ0bim6uAu565jhyz3W-1" edge="1">
          <mxGeometry relative="1" as="geometry" />
        </mxCell>
        <mxCell id="rPY3LmB4Ow1-nCbWdkCg-1" value="MessageInput_container" style="rounded=1;whiteSpace=wrap;html=1;strokeWidth=5;fillColor=#dae8fc;gradientColor=#7ea6e0;strokeColor=#6c8ebf;" parent="1" vertex="1">
          <mxGeometry x="190" y="420" width="160" height="30" as="geometry" />
        </mxCell>
        <mxCell id="tiZ0bim6uAu565jhyz3W-19" style="edgeStyle=none;rounded=0;orthogonalLoop=1;jettySize=auto;html=1;exitX=0;exitY=0.5;exitDx=0;exitDy=0;entryX=1;entryY=0.5;entryDx=0;entryDy=0;strokeColor=#FF0000;" parent="1" source="rPY3LmB4Ow1-nCbWdkCg-7" target="tiZ0bim6uAu565jhyz3W-8" edge="1">
          <mxGeometry relative="1" as="geometry" />
        </mxCell>
        <mxCell id="rPY3LmB4Ow1-nCbWdkCg-7" value="PostInput_container" style="rounded=1;whiteSpace=wrap;html=1;strokeWidth=5;fillColor=#d5e8d4;strokeColor=#82b366;gradientColor=#97d077;" parent="1" vertex="1">
          <mxGeometry x="-280" y="280" width="125.5" height="30" as="geometry" />
        </mxCell>
        <mxCell id="hCTO40AvHvjsaFrk7N4l-1" value="redux-store" style="shape=note;whiteSpace=wrap;html=1;backgroundOutline=1;darkOpacity=0.05;fillColor=#f8cecc;strokeColor=#b85450;" parent="1" vertex="1">
          <mxGeometry x="-190" y="30" width="140" height="60" as="geometry" />
        </mxCell>
        <mxCell id="hCTO40AvHvjsaFrk7N4l-3" value="" style="shape=flexArrow;endArrow=classic;html=1;exitX=0;exitY=0;exitDx=140;exitDy=45;exitPerimeter=0;entryX=0;entryY=0.5;entryDx=0;entryDy=0;fillColor=#ffe6cc;strokeColor=#d79b00;" parent="1" source="hCTO40AvHvjsaFrk7N4l-1" target="NcmY5wRb6qmJwFxtnWwE-2" edge="1">
          <mxGeometry width="50" height="50" relative="1" as="geometry">
            <mxPoint x="80" y="160" as="sourcePoint" />
            <mxPoint x="130" y="110" as="targetPoint" />
            <Array as="points" />
          </mxGeometry>
        </mxCell>
        <mxCell id="tiZ0bim6uAu565jhyz3W-1" value="MessageInput" style="rounded=0;whiteSpace=wrap;html=1;strokeWidth=5;fillColor=#dae8fc;gradientColor=#7ea6e0;strokeColor=#6c8ebf;" parent="1" vertex="1">
          <mxGeometry x="220" y="520" width="100" height="30" as="geometry" />
        </mxCell>
        <mxCell id="tiZ0bim6uAu565jhyz3W-8" value="PostInput" style="rounded=0;whiteSpace=wrap;html=1;strokeWidth=5;fillColor=#d5e8d4;strokeColor=#82b366;gradientColor=#97d077;" parent="1" vertex="1">
          <mxGeometry x="-485.5" y="280" width="125.5" height="30" as="geometry" />
        </mxCell>
        <mxCell id="glclH0pW0prBYwFQhmI4-4" value="" style="shape=flexArrow;endArrow=classic;html=1;strokeColor=#FF0000;exitX=1;exitY=0.5;exitDx=0;exitDy=0;entryX=0;entryY=0.5;entryDx=0;entryDy=0;" edge="1" parent="1" source="NcmY5wRb6qmJwFxtnWwE-2" target="vk21m-djXGiHdSAmLA7r-1">
          <mxGeometry width="50" height="50" relative="1" as="geometry">
            <mxPoint x="200" y="170" as="sourcePoint" />
            <mxPoint x="250" y="120" as="targetPoint" />
            <Array as="points" />
          </mxGeometry>
        </mxCell>
        <mxCell id="glclH0pW0prBYwFQhmI4-8" style="edgeStyle=orthogonalEdgeStyle;rounded=0;orthogonalLoop=1;jettySize=auto;html=1;exitX=0;exitY=0.5;exitDx=0;exitDy=0;strokeColor=#FF0000;" edge="1" parent="1" source="glclH0pW0prBYwFQhmI4-5" target="glclH0pW0prBYwFQhmI4-7">
          <mxGeometry relative="1" as="geometry" />
        </mxCell>
        <mxCell id="glclH0pW0prBYwFQhmI4-5" value="Profile_Container" style="rounded=1;whiteSpace=wrap;html=1;fillColor=#d5e8d4;strokeColor=#82b366;gradientColor=#97d077;strokeWidth=6;" vertex="1" parent="1">
          <mxGeometry x="110" y="142.5" width="120" height="60" as="geometry" />
        </mxCell>
        <mxCell id="glclH0pW0prBYwFQhmI4-10" style="edgeStyle=none;rounded=0;orthogonalLoop=1;jettySize=auto;html=1;exitX=0;exitY=0.5;exitDx=0;exitDy=0;entryX=1;entryY=0.5;entryDx=0;entryDy=0;strokeColor=#FF0000;" edge="1" parent="1" source="glclH0pW0prBYwFQhmI4-7" target="NcmY5wRb6qmJwFxtnWwE-17">
          <mxGeometry relative="1" as="geometry" />
        </mxCell>
        <mxCell id="glclH0pW0prBYwFQhmI4-11" style="edgeStyle=none;rounded=0;orthogonalLoop=1;jettySize=auto;html=1;exitX=0;exitY=0.25;exitDx=0;exitDy=0;entryX=1;entryY=0.5;entryDx=0;entryDy=0;strokeColor=#FF0000;" edge="1" parent="1" source="glclH0pW0prBYwFQhmI4-7" target="NcmY5wRb6qmJwFxtnWwE-19">
          <mxGeometry relative="1" as="geometry" />
        </mxCell>
        <mxCell id="glclH0pW0prBYwFQhmI4-15" style="edgeStyle=none;rounded=0;orthogonalLoop=1;jettySize=auto;html=1;exitX=0;exitY=1;exitDx=0;exitDy=0;entryX=1;entryY=0.25;entryDx=0;entryDy=0;strokeColor=#FF0000;" edge="1" parent="1" source="glclH0pW0prBYwFQhmI4-7" target="rPY3LmB4Ow1-nCbWdkCg-7">
          <mxGeometry relative="1" as="geometry" />
        </mxCell>
        <mxCell id="glclH0pW0prBYwFQhmI4-17" style="edgeStyle=none;rounded=0;orthogonalLoop=1;jettySize=auto;html=1;exitX=0.25;exitY=1;exitDx=0;exitDy=0;entryX=1;entryY=0.5;entryDx=0;entryDy=0;strokeColor=#FF0000;" edge="1" parent="1" source="glclH0pW0prBYwFQhmI4-7" target="NcmY5wRb6qmJwFxtnWwE-14">
          <mxGeometry relative="1" as="geometry" />
        </mxCell>
        <mxCell id="glclH0pW0prBYwFQhmI4-7" value="Profile" style="rounded=0;whiteSpace=wrap;html=1;strokeWidth=5;fillColor=#d5e8d4;strokeColor=#82b366;gradientColor=#97d077;" vertex="1" parent="1">
          <mxGeometry x="-80" y="155" width="110" height="35" as="geometry" />
        </mxCell>
        <mxCell id="glclH0pW0prBYwFQhmI4-13" value="ProfileStatus" style="rounded=0;whiteSpace=wrap;html=1;strokeWidth=5;fillColor=#d5e8d4;strokeColor=#82b366;gradientColor=#97d077;" vertex="1" parent="1">
          <mxGeometry x="-470" y="215" width="110" height="35" as="geometry" />
        </mxCell>
        <mxCell id="glclH0pW0prBYwFQhmI4-50" style="edgeStyle=none;rounded=0;orthogonalLoop=1;jettySize=auto;html=1;exitX=0.25;exitY=1;exitDx=0;exitDy=0;entryX=1;entryY=0;entryDx=0;entryDy=0;fontColor=#000000;strokeColor=#00FFFF;" edge="1" parent="1" source="glclH0pW0prBYwFQhmI4-18" target="NcmY5wRb6qmJwFxtnWwE-9">
          <mxGeometry relative="1" as="geometry" />
        </mxCell>
        <mxCell id="glclH0pW0prBYwFQhmI4-18" value="Dialogs_Container" style="rounded=1;whiteSpace=wrap;html=1;strokeColor=#6c8ebf;strokeWidth=6;fillColor=#dae8fc;gradientColor=#7ea6e0;" vertex="1" parent="1">
          <mxGeometry x="160" y="270" width="130" height="30" as="geometry" />
        </mxCell>
        <mxCell id="glclH0pW0prBYwFQhmI4-38" style="edgeStyle=none;rounded=0;orthogonalLoop=1;jettySize=auto;html=1;exitX=0.75;exitY=1;exitDx=0;exitDy=0;entryX=0.382;entryY=-0.052;entryDx=0;entryDy=0;entryPerimeter=0;fontColor=#000000;strokeColor=#d79b00;gradientColor=#ffa500;fillColor=#ffcd28;" edge="1" parent="1" source="glclH0pW0prBYwFQhmI4-35" target="glclH0pW0prBYwFQhmI4-37">
          <mxGeometry relative="1" as="geometry" />
        </mxCell>
        <mxCell id="glclH0pW0prBYwFQhmI4-35" value="Users_Container" style="rounded=1;whiteSpace=wrap;html=1;strokeWidth=6;fillColor=#fff2cc;strokeColor=#d6b656;" vertex="1" parent="1">
          <mxGeometry x="360" y="280" width="130" height="30" as="geometry" />
        </mxCell>
        <mxCell id="glclH0pW0prBYwFQhmI4-40" style="edgeStyle=none;rounded=0;orthogonalLoop=1;jettySize=auto;html=1;exitX=0.5;exitY=1;exitDx=0;exitDy=0;fontColor=#000000;strokeColor=#d79b00;gradientColor=#ffa500;fillColor=#ffcd28;entryX=0.25;entryY=0;entryDx=0;entryDy=0;" edge="1" parent="1" source="glclH0pW0prBYwFQhmI4-37" target="glclH0pW0prBYwFQhmI4-41">
          <mxGeometry relative="1" as="geometry">
            <mxPoint x="640" y="460" as="targetPoint" />
          </mxGeometry>
        </mxCell>
        <mxCell id="glclH0pW0prBYwFQhmI4-37" value="UsersAPIComponent" style="rounded=1;whiteSpace=wrap;html=1;strokeWidth=6;fillColor=#fff2cc;gradientColor=#ffd966;strokeColor=#d6b656;" vertex="1" parent="1">
          <mxGeometry x="400" y="386.25" width="140" height="33.75" as="geometry" />
        </mxCell>
        <mxCell id="glclH0pW0prBYwFQhmI4-41" value="Users" style="rounded=0;whiteSpace=wrap;html=1;strokeWidth=6;fillColor=#fff2cc;gradientColor=#ffd966;strokeColor=#d6b656;" vertex="1" parent="1">
          <mxGeometry x="450" y="480" width="100" height="30" as="geometry" />
        </mxCell>
        <mxCell id="glclH0pW0prBYwFQhmI4-42" value="Login" style="rounded=0;whiteSpace=wrap;html=1;strokeWidth=6;fillColor=#f5f5f5;gradientColor=#b3b3b3;strokeColor=#666666;" vertex="1" parent="1">
          <mxGeometry x="525" y="90" width="110" height="30" as="geometry" />
        </mxCell>
        <mxCell id="glclH0pW0prBYwFQhmI4-44" value="Navigation" style="rounded=0;whiteSpace=wrap;html=1;strokeWidth=6;fillColor=#e6d0de;gradientColor=#d5739d;strokeColor=#996185;" vertex="1" parent="1">
          <mxGeometry x="520" y="150" width="120" height="30" as="geometry" />
        </mxCell>
        <mxCell id="glclH0pW0prBYwFQhmI4-58" style="edgeStyle=none;rounded=0;orthogonalLoop=1;jettySize=auto;html=1;exitX=1;exitY=0.5;exitDx=0;exitDy=0;entryX=0;entryY=0.5;entryDx=0;entryDy=0;fontColor=#000000;strokeColor=#FFCCFF;" edge="1" parent="1" source="glclH0pW0prBYwFQhmI4-49" target="glclH0pW0prBYwFQhmI4-54">
          <mxGeometry relative="1" as="geometry" />
        </mxCell>
        <mxCell id="glclH0pW0prBYwFQhmI4-49" value="Header_Container" style="rounded=1;whiteSpace=wrap;html=1;strokeWidth=6;fillColor=#008a00;strokeColor=#005700;fontColor=#ffffff;" vertex="1" parent="1">
          <mxGeometry x="525" y="225" width="120" height="45" as="geometry" />
        </mxCell>
        <mxCell id="glclH0pW0prBYwFQhmI4-54" value="Header" style="rounded=0;whiteSpace=wrap;html=1;fontColor=#ffffff;strokeWidth=6;fillColor=#008a00;strokeColor=#005700;" vertex="1" parent="1">
          <mxGeometry x="710" y="231.25" width="120" height="32.5" as="geometry" />
        </mxCell>
        <mxCell id="glclH0pW0prBYwFQhmI4-55" style="edgeStyle=none;rounded=0;orthogonalLoop=1;jettySize=auto;html=1;exitX=1;exitY=1;exitDx=0;exitDy=0;fontColor=#000000;strokeColor=#FF0000;" edge="1" parent="1" source="glclH0pW0prBYwFQhmI4-54" target="glclH0pW0prBYwFQhmI4-54">
          <mxGeometry relative="1" as="geometry" />
        </mxCell>
        <mxCell id="glclH0pW0prBYwFQhmI4-59" style="edgeStyle=none;rounded=0;orthogonalLoop=1;jettySize=auto;html=1;exitX=1;exitY=1;exitDx=0;exitDy=0;fontColor=#000000;strokeColor=#FFCCFF;" edge="1" parent="1" source="glclH0pW0prBYwFQhmI4-54" target="glclH0pW0prBYwFQhmI4-54">
          <mxGeometry relative="1" as="geometry" />
        </mxCell>
      </root>
    </mxGraphModel>
  </diagram>
</mxfile>
